# xmcd
#
# Track frame offsets:
#	150
#	18574
#	39330
#	56656
#	72934
#	85656
#	99501
#	109811
#	129125
#	149887
#	169262
#	188530
#	203717
#	218494
#	240982
#	257073
#	271712
#	289844
#
# Disc length: 4058 seconds
#
# Revision: 2
# Processed by: cddbd v1.5.2PL0 Copyright (c) Steve Scherf et al.
# Submitted via: EZCDAudioConverter 3.1.0.1
#
DISCID=fa0fd812
DTITLE=Shelby Lynne - Live At McCabe's
DYEAR=2012
DGENRE=Country
TTITLE0=Revelation Road
TTITLE1=Lead Me Love
TTITLE2=I'll Hold Your Head
TTITLE3=I Don't Need A Reason
TTITLE4=Even Angels
TTITLE5=Woebegone
TTITLE6=The Thief
TTITLE7=Heaven's Only Days... 
TTITLE8=Jesus On A Greyhound
TTITLE9=Leavin'
TTITLE10=Old Dog
TTITLE11=Johnny Met June
TTITLE12=10 Rocks
TTITLE13=Live Is Bad
TTITLE14=Tarpoleon Napoleon
TTITLE15=Your Lies
TTITLE16=Where I'm From
TTITLE17=Iced Tea
EXTD=
EXTT0=
EXTT1=
EXTT2=
EXTT3=
EXTT4=
EXTT5=
EXTT6=
EXTT7=
EXTT8=
EXTT9=
EXTT10=
EXTT11=
EXTT12=
EXTT13=
EXTT14=
EXTT15=
EXTT16=
EXTT17=
PLAYORDER=
